<svg viewBox="0 0 500 500" xmlns="http://www.w3.org/2000/svg">
  <defs></defs>
  <rect id="primary" x="24.352" y="24.352" width="451.296" height="451.296" rx="57.946" style="fill: rgb(28, 28, 28);" ry="57.946"></rect>
  <path id="secondary" d="M 137.174 227.439 C 131.177 227.477 125.419 225.11 121.152 220.89 L 98.587 198.325 C 86.248 185.986 91.89 164.933 108.742 160.42 C 116.575 158.319 124.9 160.556 130.632 166.288 L 137.174 173.057 L 166.288 143.724 C 178.607 131.378 199.68 137.038 204.193 153.877 C 206.294 161.703 204.057 170.028 198.325 175.761 L 153.196 220.89 C 148.93 225.11 143.179 227.477 137.174 227.439 Z M 153.196 356.283 L 198.325 311.154 C 210.645 298.808 205.003 277.754 188.171 273.242 C 180.345 271.141 172.02 273.378 166.288 279.11 L 137.174 308.443 L 130.632 301.674 C 118.292 289.329 97.239 294.995 92.726 311.828 C 90.625 319.661 92.856 327.987 98.587 333.719 L 121.152 356.283 C 129.977 365.173 144.372 365.173 153.196 356.283 Z M 407.954 317.696 C 407.954 305.24 397.845 295.132 385.39 295.132 L 272.567 295.132 C 255.19 295.132 244.336 313.929 253.024 328.978 C 257.065 335.949 264.507 340.26 272.567 340.26 L 385.39 340.26 C 397.845 340.26 407.954 330.152 407.954 317.696 Z M 407.954 182.303 C 407.954 169.847 397.845 159.739 385.39 159.739 L 272.567 159.739 C 255.19 159.739 244.336 178.536 253.024 193.585 C 257.065 200.562 264.507 204.867 272.567 204.867 L 385.39 204.867 C 397.845 204.867 407.954 194.758 407.954 182.303 Z" style="fill: rgb(147, 235, 235);"></path>
</svg>